HIERARCHY
ROOT Hips
{
  OFFSET 0.0000 0.0000 0.0000
  CHANNELS 6 Xposition Yposition Zposition Zrotation Xrotation Yrotation
  JOINT LeftHip
  {
    OFFSET 3.4300 0.0000 0.0000
    CHANNELS 3 Zrotation Xrotation Yrotation
    JOINT LeftKnee
    {
      OFFSET 0.0000 -18.4700 0.0000
      CHANNELS 3 Zrotation Xrotation Yrotation
      JOINT LeftAnkle
      {
        OFFSET -0.0000 -17.9500 -0.0000
        CHANNELS 3 Zrotation Xrotation Yrotation
        End Site
        {
            OFFSET 0.0000 -3.1200 0.0000
        }
      }
    }
  }
  JOINT RightHip
  {
    OFFSET -3.4300 0.0000 0.0000
    CHANNELS 3 Zrotation Xrotation Yrotation
    JOINT RightKnee
    {
      OFFSET 0.0000 -18.4700 0.0000
      CHANNELS 3 Zrotation Xrotation Yrotation
      JOINT RightAnkle
      {
        OFFSET 0.0000 -17.9500 0.0000
        CHANNELS 3 Zrotation Xrotation Yrotation
        End Site
        {
            OFFSET -0.0000 -3.1200 -0.0000
        }
      }
    }
  }
  JOINT Chest
  {
    OFFSET 0.0000 4.5700 0.0000
    CHANNELS 3 Zrotation Xrotation Yrotation
    JOINT Chest2
    {
      OFFSET 0.0000 6.5700 -0.0000
      CHANNELS 3 Zrotation Xrotation Yrotation
      JOINT LeftCollar
      {
        OFFSET 1.0600 4.1900 1.7600
        CHANNELS 3 Zrotation Xrotation Yrotation
        JOINT LeftShoulder
        {
          OFFSET 5.8100 0.0000 -0.0000
          CHANNELS 3 Zrotation Xrotation Yrotation
          JOINT LeftElbow
          {
            OFFSET 0.0000 -12.0800 -0.0000
            CHANNELS 3 Zrotation Xrotation Yrotation
            JOINT LeftWrist
            {
              OFFSET 0.0000 -9.8200 -0.0000
              CHANNELS 3 Zrotation Xrotation Yrotation
              End Site
              {
                  OFFSET 0.0000 -7.3700 -0.0000
              }
            }
          }
        }
      }
      JOINT RightCollar
      {
        OFFSET -1.0600 4.1900 1.7600
        CHANNELS 3 Zrotation Xrotation Yrotation
        JOINT RightShoulder
        {
          OFFSET -6.0600 0.0000 0.0000
          CHANNELS 3 Zrotation Xrotation Yrotation
          JOINT RightElbow
          {
            OFFSET 0.0000 -11.0800 0.0000
            CHANNELS 3 Zrotation Xrotation Yrotation
            JOINT RightWrist
            {
              OFFSET 0.0000 -9.8200 0.0000
              CHANNELS 3 Zrotation Xrotation Yrotation
              End Site
              {
                  OFFSET 0.0000 -7.1400 0.0000
              }
            }
          }
        }
      }
      JOINT Neck
      {
        OFFSET -0.0000 4.0500 0.0000
        CHANNELS 3 Zrotation Xrotation Yrotation
        JOINT Head
        {
          OFFSET 0.0000 5.1900 0.0000
          CHANNELS 3 Zrotation Xrotation Yrotation
          End Site
          {
              OFFSET 0.0000 4.1400 0.0000
          }
        }
      }
    }
  }
}
MOTION
Frames:	16
Frame Time:	0.030000
-22.0650 42.2100 -5.3882 -0.62 4.47 -19.07 9.99 -28.33 12.33 0.33 57.51 9.98 -1.60 30.35 2.06 2.89 -4.52 -7.49 3.67 6.17 -33.84 5.99 13.93 -1.59 -1.67 5.20 -0.77 -0.00 0.00 -1.14 -2.38 0.39 -0.17 104.69 -19.18 34.17 -6.82 -17.16 42.84 -16.17 0.43 1.12 14.03 3.36 12.43 -47.53 20.45 9.77 22.40 -9.65 64.48 5.71 -12.14 1.04 -0.89 -6.51 2.95 -0.30 7.36 2.68 
-22.9896 41.5602 -6.1130 -0.97 3.98 -11.78 10.81 -24.61 15.34 0.07 64.25 9.70 -2.64 41.22 0.93 4.62 -3.65 -7.62 4.86 5.83 -39.56 3.46 5.04 -1.42 -1.69 4.89 0.28 -0.00 0.00 -0.06 -2.42 0.21 1.53 102.38 -18.12 33.56 -6.54 -17.27 43.18 -16.90 -0.07 1.02 14.36 3.48 12.75 -47.04 18.82 18.87 25.33 -19.08 53.63 9.31 -15.26 2.14 -0.58 -4.21 1.37 -0.26 6.60 1.24 
-23.7621 40.8684 -6.7666 -1.33 3.86 -4.99 10.41 -18.29 16.66 -0.05 64.31 14.39 -2.59 51.19 -3.25 6.32 -4.63 -7.83 5.83 6.80 -45.02 0.14 -3.58 -1.78 -1.86 4.00 1.04 -0.00 0.00 0.68 -1.76 0.03 3.18 99.85 -16.68 32.40 -6.50 -17.89 43.09 -17.06 0.38 1.09 14.83 3.62 13.08 -47.46 16.99 27.75 25.76 -30.51 44.60 12.34 -16.96 3.00 1.19 -2.68 -0.23 -0.92 6.27 0.35 
-24.2694 40.1222 -7.4551 -1.44 4.14 1.70 9.33 -10.78 16.55 -1.61 59.84 17.70 -2.71 55.62 -4.09 7.10 -7.24 -8.72 6.64 8.73 -49.71 -3.33 -10.96 -2.94 -1.76 2.93 1.51 -0.00 0.00 1.19 -1.53 -0.04 3.95 97.24 -13.78 30.35 -6.51 -18.49 43.80 -17.07 0.44 1.07 15.28 3.74 13.31 -49.71 14.92 34.75 23.14 -42.64 36.46 18.50 -19.50 4.57 1.47 -2.86 -1.64 -0.35 7.04 -1.09 
-24.6396 39.4681 -8.2349 -1.41 4.60 8.63 8.17 -3.79 15.26 -3.34 52.93 21.88 -3.20 53.02 -3.97 5.95 -11.99 -11.39 8.26 13.99 -54.98 -5.96 -16.49 -3.60 -1.55 1.82 1.93 -0.00 0.00 1.66 -1.79 0.09 2.63 94.11 -9.27 28.84 -5.99 -19.73 45.11 -16.46 0.29 1.04 14.57 3.55 12.94 -50.96 11.74 39.67 19.56 -51.80 27.25 21.01 -20.30 5.22 0.50 -3.01 -3.29 1.08 7.42 -3.33 
-25.0234 39.1233 -9.2797 -1.45 5.27 15.86 7.23 1.58 13.90 -4.48 44.83 27.66 -4.28 47.55 -2.32 3.70 -16.97 -15.47 9.23 18.81 -60.28 -5.54 -17.62 -2.36 -1.95 1.79 1.61 -0.00 0.00 1.27 -1.35 -0.01 3.65 90.28 -6.82 29.18 -5.30 -20.41 44.44 -16.65 0.32 1.05 15.39 3.84 13.66 -54.26 6.13 43.40 16.49 -58.69 17.77 21.64 -20.12 5.46 1.55 -4.86 -4.90 0.65 7.98 -4.48 
-25.4284 38.9413 -10.4983 -1.60 6.13 23.18 6.15 5.02 11.83 -6.10 38.72 31.77 -7.04 34.26 1.21 0.40 -20.97 -20.75 10.45 21.58 -63.51 -5.66 -18.15 -1.80 -2.08 1.92 1.84 -0.00 0.00 1.47 -2.96 0.21 1.62 89.32 -4.16 28.65 -5.16 -19.47 44.47 -16.81 -0.10 0.90 15.47 3.58 12.45 -57.31 -0.94 46.05 12.89 -63.07 9.86 24.40 -21.15 6.53 0.91 -6.77 -6.98 1.37 8.25 -6.82 
-25.9519 38.7321 -11.7250 -1.95 7.04 30.30 4.79 7.38 9.29 -5.93 33.86 35.43 -11.30 19.04 2.23 -3.40 -24.34 -26.07 11.72 23.56 -66.40 -6.01 -18.44 -1.46 -1.62 1.89 1.74 -0.00 0.00 1.46 -4.84 0.49 -0.37 88.48 -1.61 27.93 -5.16 -17.61 44.58 -17.46 -0.69 0.70 14.90 3.49 12.44 -60.95 -7.98 47.93 9.19 -66.37 2.41 26.73 -22.18 7.53 -0.97 -7.06 -8.60 2.81 7.15 -9.20 
-26.5432 38.5694 -12.9308 -2.33 7.97 36.80 4.38 9.96 8.17 -5.89 26.48 36.11 -13.01 7.96 2.04 -7.22 -27.30 -31.31 12.06 25.27 -68.26 -7.03 -18.32 -1.40 -1.41 1.74 1.68 -0.00 0.00 1.44 -5.51 0.62 -1.18 86.96 -0.09 27.41 -5.22 -16.29 43.97 -17.84 -0.59 0.68 14.62 3.63 13.27 -65.57 -13.86 48.01 5.02 -69.60 -4.57 26.57 -22.35 7.46 -2.28 -6.49 -10.13 3.81 5.39 -11.24 
-27.0948 38.4222 -14.1262 -2.69 8.83 42.43 3.65 12.70 7.42 -5.70 17.04 33.90 -11.85 -0.15 3.95 -11.30 -29.75 -36.62 12.01 26.83 -69.00 -8.50 -17.95 -1.55 -1.67 1.68 2.03 -0.00 0.00 1.75 -5.51 0.64 -1.28 85.83 0.16 27.89 -5.06 -15.34 42.41 -18.37 -0.02 0.82 14.91 3.80 13.83 -69.76 -19.34 46.11 3.10 -70.50 -8.55 24.77 -22.45 7.09 -2.76 -5.84 -11.96 4.30 3.58 -13.24 
-27.5790 38.1697 -15.1399 -3.09 9.40 47.28 1.46 14.53 5.91 -2.12 9.01 34.74 -11.39 -4.06 3.20 -15.69 -31.61 -41.75 12.41 29.19 -69.41 -9.34 -17.89 -1.84 -2.02 1.84 2.68 -0.00 0.00 2.33 -5.34 0.59 -0.96 85.23 -0.25 28.32 -5.00 -14.11 41.00 -18.99 0.17 0.86 15.60 4.00 14.21 -73.63 -24.14 43.52 2.38 -71.95 -10.34 23.79 -21.83 6.59 -2.81 -5.48 -14.05 4.51 1.89 -15.31 
-28.0004 37.7575 -16.0395 -3.42 9.52 51.52 0.07 14.79 4.24 0.58 5.40 36.61 -10.71 -8.79 2.00 -20.32 -33.04 -46.73 13.37 32.49 -69.84 -9.97 -18.20 -3.17 -1.82 2.08 3.31 -0.00 0.00 3.01 -5.61 0.60 -0.95 85.04 0.39 28.14 -5.09 -13.55 39.72 -18.01 0.20 0.86 15.51 4.11 14.77 -75.95 -28.05 41.07 1.41 -73.36 -12.76 23.17 -21.91 6.55 -3.74 -4.65 -15.95 5.29 0.22 -17.58 
-28.4264 37.5295 -16.7956 -3.50 9.62 55.48 -0.23 13.21 3.75 1.42 5.71 37.34 -9.66 -13.11 0.23 -23.93 -33.30 -50.80 13.28 33.98 -70.32 -10.17 -17.84 -3.00 -1.70 2.26 3.80 -0.00 0.00 3.53 -5.71 0.62 -1.07 84.86 1.67 27.73 -5.21 -13.37 38.77 -15.65 0.21 0.92 15.19 4.31 15.89 -76.88 -31.47 38.68 1.74 -73.46 -13.81 22.93 -22.85 6.96 -4.61 -2.93 -17.65 6.20 -1.86 -19.73 
-28.8450 37.5317 -17.3960 -3.46 9.81 59.14 0.12 10.53 4.19 1.20 8.23 35.82 -8.74 -15.96 -0.73 -26.39 -32.66 -54.09 12.41 33.65 -70.55 -10.57 -17.01 -1.58 -2.06 2.40 4.34 -0.00 0.00 4.00 -5.34 0.51 -0.36 84.56 1.91 27.74 -5.24 -12.59 38.15 -17.36 -0.52 0.61 15.54 4.54 16.61 -76.94 -34.75 37.78 -0.10 -74.74 -16.73 21.90 -22.16 6.42 -4.10 -1.70 -19.68 6.02 -3.50 -21.62 
-29.2546 37.5751 -17.8507 -3.60 10.03 62.48 1.27 6.41 4.37 0.23 13.98 32.08 -9.25 -18.12 -0.44 -28.14 -31.88 -56.95 11.78 32.56 -70.65 -11.52 -16.32 -1.24 -2.61 2.12 5.18 -0.00 0.00 4.75 -5.41 0.70 -1.75 85.10 3.66 27.93 -4.89 -10.88 39.21 -19.20 -1.11 0.36 15.91 4.68 16.94 -75.69 -37.51 38.77 -5.59 -76.72 -23.50 19.62 -20.83 5.40 -3.42 -0.67 -21.97 5.87 -4.69 -23.71 
-29.6259 37.4787 -18.0973 -3.97 10.06 65.33 3.28 3.54 4.55 -1.33 17.62 28.16 -10.01 -19.76 -1.95 -29.85 -31.45 -59.16 12.21 32.50 -71.45 -12.12 -16.27 -1.53 -3.24 1.90 5.75 -0.00 0.00 5.21 -5.09 0.76 -2.39 84.84 5.73 27.80 -4.55 -10.34 40.92 -16.88 -0.34 0.76 16.87 5.03 17.59 -74.86 -40.73 40.55 -12.28 -78.12 -30.69 15.93 -20.78 4.81 -2.22 -0.73 -23.95 5.40 -5.20 -25.24 
